<svg width="49" height="48" viewBox="0 0 49 48" fill="none" xmlns="http://www.w3.org/2000/svg">
<path d="M30.8922 33.8438H28.7951V30.9731C25.9275 31.9186 22.8453 31.9129 20.0452 31.0293V33.8438H17.7673C16.7984 33.8438 16.3078 35.0158 16.9886 35.7061L23.5357 42.3415C23.9628 42.7747 24.662 42.775 25.091 42.3429L31.6688 35.7076C32.3521 35.0194 31.8629 33.8438 30.8922 33.8438Z" fill="#30FF9C"/>
<path d="M13.899 7.69141C9.23386 8.46942 5.66681 12.5345 5.66681 17.4162C5.66681 22.2987 9.23386 26.3623 13.8983 27.1403C8.782 21.6538 8.78521 13.1752 13.899 7.69141Z" fill="#30FF9C"/>
<path d="M34.7675 7.69141C39.8746 13.1679 39.8918 21.6461 34.7682 27.1403C39.4327 26.3623 42.9997 22.2987 42.9997 17.4162C42.9997 12.5345 39.4327 8.46942 34.7675 7.69141Z" fill="#30FF9C"/>
<path d="M24.3332 5.3335C17.6706 5.3335 12.2501 10.7539 12.2501 17.4166C12.2501 24.0792 17.6706 29.4996 24.3332 29.4996C30.9958 29.4996 36.4162 24.0792 36.4162 17.4166C36.4162 10.7539 30.9958 5.3335 24.3332 5.3335ZM23.4539 15.7747L26.1732 17.1043C27.0741 17.5448 27.6563 18.4775 27.6563 19.4803C27.6563 20.7827 26.7098 21.8674 25.4688 22.0847V22.8944C25.4688 23.4984 24.9791 23.9881 24.375 23.9881C23.771 23.9881 23.2813 23.4984 23.2813 22.8944V22.1251H22.111C21.507 22.1251 21.0173 21.6354 21.0173 21.0314C21.0173 20.4273 21.507 19.9376 22.111 19.9376H25.0114C25.4943 19.9376 25.646 19.2814 25.2124 19.0694L22.4931 17.7398C20.2229 16.6298 20.6378 13.1348 23.1975 12.6864V11.9498C23.1975 11.3457 23.6872 10.856 24.2913 10.856C24.8953 10.856 25.385 11.3457 25.385 11.9498V12.6461H26.5626C27.1666 12.6461 27.6563 13.1358 27.6563 13.7398C27.6563 14.3439 27.1666 14.8336 26.5626 14.8336H23.6548C23.144 14.8336 23.0336 15.5692 23.4539 15.7747Z" fill="#30FF9C"/>
</svg>
