<svg width="48" height="48" viewBox="0 0 48 48" fill="none" xmlns="http://www.w3.org/2000/svg">
<path d="M43.6568 13.1283L34.8703 4.34192C34.4339 3.88794 33.6494 3.88802 33.2131 4.34192L24.4266 13.1283C24.0915 13.4635 23.9913 13.9676 24.1726 14.4054C24.354 14.8433 24.7813 15.1289 25.2552 15.1289H29.1042V42.8268C29.1042 43.474 29.6289 43.9987 30.2761 43.9987H37.8074C38.4545 43.9987 38.9792 43.474 38.9792 42.8268V15.1289H42.8282C43.3022 15.1289 43.7295 14.8433 43.9109 14.4054C44.0922 13.9676 43.992 13.4636 43.6568 13.1283Z" fill="#30FF9C"/>
<path d="M25.2553 20.3164H17.724C17.0768 20.3164 16.5521 20.8411 16.5521 21.4883V42.8268C16.5521 43.474 17.0768 43.9987 17.724 43.9987H25.2553C25.9024 43.9987 26.4271 43.474 26.4271 42.8268V21.4883C26.4271 20.8411 25.9024 20.3164 25.2553 20.3164Z" fill="#30FF9C"/>
<path d="M12.7031 30.3579H5.17188C4.52469 30.3579 4 30.8826 4 31.5298V42.8267C4 43.4739 4.52469 43.9985 5.17188 43.9985H12.7031C13.3503 43.9985 13.875 43.4739 13.875 42.8267V31.5298C13.875 30.8826 13.3503 30.3579 12.7031 30.3579Z" fill="#30FF9C"/>
</svg>
