<svg width="371" height="187" viewBox="0 0 371 187" fill="none" xmlns="http://www.w3.org/2000/svg">
<g clip-path="url(#clip0_4503_1745)">
<path d="M71.877 164.745C73.1391 164.573 74.4175 164.573 75.6797 164.745C75.0516 164.83 74.4185 164.867 73.7855 164.854C73.1475 164.867 72.5095 164.831 71.877 164.745Z" fill="#263238"/>
<path d="M71.877 145.085C72.5075 144.993 73.144 144.95 73.7805 144.956C74.416 144.95 75.0506 144.993 75.6797 145.085C74.4175 145.257 73.1391 145.257 71.877 145.085Z" fill="#263238"/>
<path d="M71.877 125.421C73.1391 125.249 74.4175 125.249 75.6797 125.421C75.0506 125.513 74.416 125.557 73.7805 125.551C73.144 125.557 72.5075 125.513 71.877 125.421Z" fill="#263238"/>
<path d="M71.877 105.763C72.5075 105.671 73.144 105.628 73.7805 105.634C74.416 105.625 75.0506 105.668 75.6797 105.763C74.4175 105.935 73.1391 105.935 71.877 105.763Z" fill="#263238"/>
<path d="M71.877 86.0978C72.508 86.0082 73.144 85.9654 73.7805 85.9683C74.416 85.9624 75.0506 86.0057 75.6797 86.0978C75.0506 86.1893 74.416 86.2326 73.7805 86.2267C73.144 86.2326 72.5075 86.1893 71.877 86.0978Z" fill="#263238"/>
<path d="M71.877 66.4396C72.5075 66.348 73.144 66.3047 73.7805 66.3106C74.416 66.3022 75.0506 66.3451 75.6797 66.4396C74.4175 66.6118 73.1391 66.6118 71.877 66.4396Z" fill="#263238"/>
<path d="M71.877 46.776C72.508 46.6869 73.144 46.6436 73.7805 46.647C74.416 46.6411 75.0506 46.6839 75.6797 46.776C75.0506 46.868 74.416 46.9109 73.7805 46.905C73.144 46.9084 72.508 46.8651 71.877 46.776Z" fill="#263238"/>
<path d="M71.877 27.1107C73.1391 26.9384 74.4175 26.9384 75.6797 27.1107C75.0506 27.2052 74.416 27.248 73.7805 27.2396C73.144 27.2455 72.5075 27.2022 71.877 27.1107Z" fill="#263238"/>
<path d="M71.877 7.45298C72.509 7.36083 73.147 7.31767 73.7855 7.32382C74.421 7.31791 75.0555 7.36108 75.6846 7.45298C75.0555 7.54483 74.421 7.588 73.7855 7.58214C73.1475 7.58569 72.5095 7.54252 71.877 7.45298Z" fill="#263238"/>
<path d="M92.7048 182.421C92.7906 183.075 92.8325 183.734 92.829 184.394C92.835 185.054 92.7931 185.714 92.7048 186.368C92.6165 185.714 92.5751 185.054 92.5805 184.394C92.5776 183.734 92.619 183.075 92.7048 182.421Z" fill="#263238"/>
<path d="M111.622 182.421C111.706 183.075 111.746 183.734 111.741 184.394C111.748 185.054 111.709 185.714 111.622 186.368C111.531 185.714 111.49 185.054 111.498 184.394C111.492 183.734 111.534 183.075 111.622 182.421Z" fill="#263238"/>
<path d="M130.536 182.421C130.622 183.075 130.664 183.734 130.661 184.394C130.666 185.054 130.625 185.714 130.536 186.368C130.448 185.714 130.406 185.054 130.412 184.394C130.409 183.734 130.45 183.075 130.536 182.421Z" fill="#263238"/>
<path d="M149.455 182.421C149.621 183.731 149.621 185.058 149.455 186.368C149.364 185.714 149.323 185.054 149.331 184.394C149.325 183.734 149.367 183.075 149.455 182.421Z" fill="#263238"/>
<path d="M168.368 182.421C168.534 183.731 168.534 185.058 168.368 186.368C168.202 185.058 168.202 183.731 168.368 182.421Z" fill="#263238"/>
<path d="M187.286 182.421C187.452 183.731 187.452 185.058 187.286 186.368C187.12 185.058 187.12 183.731 187.286 182.421Z" fill="#263238"/>
<path d="M206.197 182.421C206.363 183.731 206.363 185.058 206.197 186.368C206.032 185.058 206.032 183.731 206.197 182.421Z" fill="#263238"/>
<path d="M225.116 182.421C225.282 183.731 225.282 185.058 225.116 186.368C224.951 185.058 224.951 183.731 225.116 182.421Z" fill="#263238"/>
<path d="M244.03 182.421C244.196 183.731 244.196 185.058 244.03 186.368C243.865 185.058 243.865 183.731 244.03 182.421Z" fill="#263238"/>
<path d="M262.948 182.421C263.114 183.731 263.114 185.058 262.948 186.368C262.783 185.058 262.783 183.731 262.948 182.421Z" fill="#263238"/>
<path d="M281.863 182.421C282.028 183.731 282.028 185.058 281.863 186.368C281.697 185.058 281.697 183.731 281.863 182.421Z" fill="#263238"/>
<g opacity="0.15">
<path d="M0.540257 110.416H-10.79V195.275H0.540257V110.416Z" fill="url(#paint0_linear_4503_1745)"/>
<path d="M13.0842 94.0996H1.75391V195.278H13.0842V94.0996Z" fill="url(#paint1_linear_4503_1745)"/>
<path d="M25.6301 145.671H14.2998V195.281H25.6301V145.671Z" fill="url(#paint2_linear_4503_1745)"/>
<path opacity="0.3" d="M38.1716 79.7393H26.8413V195.278H38.1716V79.7393Z" fill="url(#paint3_linear_4503_1745)"/>
<path d="M50.717 119.559H39.3867V195.279H50.717V119.559Z" fill="url(#paint4_linear_4503_1745)"/>
<path d="M63.2614 110.417H51.9312V195.276H63.2614V110.417Z" fill="url(#paint5_linear_4503_1745)"/>
<path opacity="0.3" d="M76.8679 133.988H65.5376V195.276H76.8679V133.988Z" fill="url(#paint6_linear_4503_1745)"/>
<path d="M89.4118 122.203H78.0815V195.277H89.4118V122.203Z" fill="url(#paint7_linear_4503_1745)"/>
<path opacity="0.3" d="M101.955 159.451H90.6245V195.281H101.955V159.451Z" fill="url(#paint8_linear_4503_1745)"/>
<path d="M114.501 111.833H103.17V195.278H114.501V111.833Z" fill="url(#paint9_linear_4503_1745)"/>
<path d="M127.045 140.588H115.714V195.275H127.045V140.588Z" fill="url(#paint10_linear_4503_1745)"/>
<path d="M139.589 133.988H128.259V195.276H139.589V133.988Z" fill="url(#paint11_linear_4503_1745)"/>
<path d="M153.199 109.019H141.869V195.274H153.199V109.019Z" fill="url(#paint12_linear_4503_1745)"/>
<path d="M165.745 92.4326H154.415V195.275H165.745V92.4326Z" fill="url(#paint13_linear_4503_1745)"/>
<path d="M178.289 144.854H166.958V195.28H178.289V144.854Z" fill="url(#paint14_linear_4503_1745)"/>
<path d="M190.83 77.8369H179.5V195.276H190.83V77.8369Z" fill="url(#paint15_linear_4503_1745)"/>
<path d="M203.376 118.309H192.045V195.275H203.376V118.309Z" fill="url(#paint16_linear_4503_1745)"/>
<path opacity="0.3" d="M215.922 109.019H204.591V195.274H215.922V109.019Z" fill="url(#paint17_linear_4503_1745)"/>
<path d="M229.532 109.019H218.202V195.274H229.532V109.019Z" fill="url(#paint18_linear_4503_1745)"/>
<path d="M242.077 92.4336H230.747V195.276H242.077V92.4336Z" fill="url(#paint19_linear_4503_1745)"/>
<path d="M254.619 144.854H243.289V195.281H254.619V144.854Z" fill="url(#paint20_linear_4503_1745)"/>
<path d="M267.162 77.8379H255.832V195.277H267.162V77.8379Z" fill="url(#paint21_linear_4503_1745)"/>
<path d="M279.705 118.31H268.375V195.276H279.705V118.31Z" fill="url(#paint22_linear_4503_1745)"/>
<path d="M292.253 109.019H280.923V195.274H292.253V109.019Z" fill="url(#paint23_linear_4503_1745)"/>
<path opacity="0.3" d="M305.862 65.7881H294.532V195.271H305.862V65.7881Z" fill="url(#paint24_linear_4503_1745)"/>
<path d="M318.407 40.8896H307.077V195.274H318.407V40.8896Z" fill="url(#paint25_linear_4503_1745)"/>
<path d="M330.949 119.581H319.619V195.279H330.949V119.581Z" fill="url(#paint26_linear_4503_1745)"/>
<path d="M343.493 18.9795H332.163V195.276H343.493V18.9795Z" fill="url(#paint27_linear_4503_1745)"/>
<path opacity="0.3" d="M356.04 79.7344H344.71V195.273H356.04V79.7344Z" fill="url(#paint28_linear_4503_1745)"/>
<path d="M368.584 65.7871H357.254V195.27H368.584V65.7871Z" fill="url(#paint29_linear_4503_1745)"/>
</g>
<path d="M95.8639 70.1882L96.4831 69.7851L96.0581 69.1338L95.4285 69.5911L95.8639 70.1882ZM119.847 106.934L119.227 107.337L119.634 107.96L120.255 107.55L119.847 106.934ZM203.603 51.6004L204.218 51.1909L203.809 50.5785L203.194 50.9846L203.603 51.6004ZM219.424 75.2794L218.809 75.6894L219.221 76.3052L219.836 75.8927L219.424 75.2794ZM283.879 32.1143L275.359 32.6872L280.115 39.7675L283.879 32.1143ZM45.2537 106.934L45.6885 107.531L96.2987 70.7853L95.8639 70.1882L95.4285 69.5911L44.8188 106.337L45.2537 106.934ZM95.8639 70.1882L95.2441 70.5914L119.227 107.337L119.847 106.934L120.466 106.531L96.4831 69.7851L95.8639 70.1882ZM119.847 106.934L120.255 107.55L204.011 52.2162L203.603 51.6004L203.194 50.9846L119.438 106.318L119.847 106.934ZM203.603 51.6004L202.987 52.0099L218.809 75.6894L219.424 75.2794L220.04 74.8699L204.218 51.1909L203.603 51.6004ZM219.424 75.2794L219.836 75.8927L278.763 36.4292L278.351 35.8159L277.939 35.203L219.013 74.6666L219.424 75.2794Z" fill="url(#paint30_linear_4503_1745)"/>
<g filter="url(#filter0_f_4503_1745)">
<path d="M279.195 65.587C295.941 65.587 309.516 52.0335 309.516 35.3145C309.516 18.5955 295.941 5.04199 279.195 5.04199C262.449 5.04199 248.874 18.5955 248.874 35.3145C248.874 52.0335 262.449 65.587 279.195 65.587Z" fill="#30FF9C" fill-opacity="0.07"/>
</g>
</g>
<rect x="0.187988" y="62" width="370" height="125" fill="url(#paint31_linear_4503_1745)"/>
<defs>
<filter id="filter0_f_4503_1745" x="195.374" y="-48.458" width="167.642" height="167.545" filterUnits="userSpaceOnUse" color-interpolation-filters="sRGB">
<feFlood flood-opacity="0" result="BackgroundImageFix"/>
<feBlend mode="normal" in="SourceGraphic" in2="BackgroundImageFix" result="shape"/>
<feGaussianBlur stdDeviation="26.75" result="effect1_foregroundBlur_4503_1745"/>
</filter>
<linearGradient id="paint0_linear_4503_1745" x1="-5.05683" y1="193.301" x2="-5.05678" y2="143.965" gradientUnits="userSpaceOnUse">
<stop offset="0.0676845" stop-color="#00FF55" stop-opacity="0"/>
<stop offset="1" stop-color="#66EDB5"/>
</linearGradient>
<linearGradient id="paint1_linear_4503_1745" x1="7.48707" y1="192.924" x2="7.48716" y2="134.1" gradientUnits="userSpaceOnUse">
<stop offset="0.0676845" stop-color="#00FF4D" stop-opacity="0"/>
<stop offset="1" stop-color="#7AFFD3"/>
</linearGradient>
<linearGradient id="paint2_linear_4503_1745" x1="20.033" y1="194.127" x2="20.033" y2="165.284" gradientUnits="userSpaceOnUse">
<stop offset="0.0676845" stop-color="#00FF4D" stop-opacity="0"/>
<stop offset="1" stop-color="#78FFC2"/>
</linearGradient>
<linearGradient id="paint3_linear_4503_1745" x1="32.5745" y1="192.59" x2="32.5746" y2="125.417" gradientUnits="userSpaceOnUse">
<stop offset="0.0676845" stop-color="#00FF4D" stop-opacity="0"/>
<stop offset="1" stop-color="#78FFC2"/>
</linearGradient>
<linearGradient id="paint4_linear_4503_1745" x1="45.1201" y1="193.518" x2="45.1201" y2="149.494" gradientUnits="userSpaceOnUse">
<stop offset="0.0676845" stop-color="#00FF4D" stop-opacity="0"/>
<stop offset="1" stop-color="#78FFC2"/>
</linearGradient>
<linearGradient id="paint5_linear_4503_1745" x1="57.6641" y1="193.302" x2="57.6646" y2="143.966" gradientUnits="userSpaceOnUse">
<stop offset="0.0676845" stop-color="#00FF4D" stop-opacity="0"/>
<stop offset="1" stop-color="#7AFFD3"/>
</linearGradient>
<linearGradient id="paint6_linear_4503_1745" x1="71.271" y1="193.85" x2="71.271" y2="158.218" gradientUnits="userSpaceOnUse">
<stop offset="0.0676845" stop-color="#00FF4D" stop-opacity="0"/>
<stop offset="1" stop-color="#78FFC2"/>
</linearGradient>
<linearGradient id="paint7_linear_4503_1745" x1="83.8145" y1="193.576" x2="83.8145" y2="151.092" gradientUnits="userSpaceOnUse">
<stop offset="0.0676845" stop-color="#00FF4D" stop-opacity="0"/>
<stop offset="1" stop-color="#78FFC2"/>
</linearGradient>
<linearGradient id="paint8_linear_4503_1745" x1="96.3579" y1="194.447" x2="96.3579" y2="173.616" gradientUnits="userSpaceOnUse">
<stop offset="0.0676845" stop-color="#00FF4D" stop-opacity="0"/>
<stop offset="1" stop-color="#78FFC2"/>
</linearGradient>
<linearGradient id="paint9_linear_4503_1745" x1="108.903" y1="193.336" x2="108.903" y2="144.823" gradientUnits="userSpaceOnUse">
<stop offset="0.0676845" stop-color="#00FF4D" stop-opacity="0"/>
<stop offset="1" stop-color="#78FFC2"/>
</linearGradient>
<linearGradient id="paint10_linear_4503_1745" x1="121.447" y1="194.003" x2="121.448" y2="162.208" gradientUnits="userSpaceOnUse">
<stop offset="0.0676845" stop-color="#00FF4D" stop-opacity="0"/>
<stop offset="1" stop-color="#78FFC2"/>
</linearGradient>
<linearGradient id="paint11_linear_4503_1745" x1="133.992" y1="193.85" x2="133.992" y2="158.218" gradientUnits="userSpaceOnUse">
<stop offset="0.0676845" stop-color="#00FF4D" stop-opacity="0"/>
<stop offset="1" stop-color="#78FFC2"/>
</linearGradient>
<linearGradient id="paint12_linear_4503_1745" x1="147.602" y1="193.267" x2="147.602" y2="143.119" gradientUnits="userSpaceOnUse">
<stop offset="0.0676845" stop-color="#00FF4D" stop-opacity="0"/>
<stop offset="1" stop-color="#7AFFD3"/>
</linearGradient>
<linearGradient id="paint13_linear_4503_1745" x1="160.148" y1="192.882" x2="160.148" y2="133.091" gradientUnits="userSpaceOnUse">
<stop offset="0.0676845" stop-color="#00FF55" stop-opacity="0"/>
<stop offset="1" stop-color="#66EDB5"/>
</linearGradient>
<linearGradient id="paint14_linear_4503_1745" x1="172.692" y1="194.106" x2="172.692" y2="164.789" gradientUnits="userSpaceOnUse">
<stop offset="0.0676845" stop-color="#00FF4D" stop-opacity="0"/>
<stop offset="1" stop-color="#78FFC2"/>
</linearGradient>
<linearGradient id="paint15_linear_4503_1745" x1="185.233" y1="192.544" x2="185.233" y2="124.266" gradientUnits="userSpaceOnUse">
<stop offset="0.0676845" stop-color="#00FF4D" stop-opacity="0"/>
<stop offset="1" stop-color="#7AFFD3"/>
</linearGradient>
<linearGradient id="paint16_linear_4503_1745" x1="197.779" y1="193.484" x2="197.779" y2="148.737" gradientUnits="userSpaceOnUse">
<stop offset="0.0676845" stop-color="#00FF4D" stop-opacity="0"/>
<stop offset="1" stop-color="#78FFC2"/>
</linearGradient>
<linearGradient id="paint17_linear_4503_1745" x1="210.324" y1="193.267" x2="210.324" y2="143.119" gradientUnits="userSpaceOnUse">
<stop offset="0.0676845" stop-color="#00FF4D" stop-opacity="0"/>
<stop offset="1" stop-color="#7AFFD3"/>
</linearGradient>
<linearGradient id="paint18_linear_4503_1745" x1="223.935" y1="193.267" x2="223.935" y2="143.119" gradientUnits="userSpaceOnUse">
<stop offset="0.0676845" stop-color="#00FF4D" stop-opacity="0"/>
<stop offset="1" stop-color="#78FFC2"/>
</linearGradient>
<linearGradient id="paint19_linear_4503_1745" x1="236.48" y1="192.883" x2="236.48" y2="133.092" gradientUnits="userSpaceOnUse">
<stop offset="0.0676845" stop-color="#00FF4D" stop-opacity="0"/>
<stop offset="1" stop-color="#7AFFD3"/>
</linearGradient>
<linearGradient id="paint20_linear_4503_1745" x1="249.021" y1="194.107" x2="249.021" y2="164.79" gradientUnits="userSpaceOnUse">
<stop offset="0.0676845" stop-color="#00FF4D" stop-opacity="0"/>
<stop offset="1" stop-color="#78FFC2"/>
</linearGradient>
<linearGradient id="paint21_linear_4503_1745" x1="261.565" y1="192.545" x2="261.565" y2="124.267" gradientUnits="userSpaceOnUse">
<stop offset="0.0676845" stop-color="#00FF55" stop-opacity="0"/>
<stop offset="1" stop-color="#66EDB5"/>
</linearGradient>
<linearGradient id="paint22_linear_4503_1745" x1="274.107" y1="193.485" x2="274.107" y2="148.738" gradientUnits="userSpaceOnUse">
<stop offset="0.0676845" stop-color="#00FF4D" stop-opacity="0"/>
<stop offset="1" stop-color="#7AFFD3"/>
</linearGradient>
<linearGradient id="paint23_linear_4503_1745" x1="286.656" y1="193.267" x2="286.656" y2="143.119" gradientUnits="userSpaceOnUse">
<stop offset="0.0676845" stop-color="#00FF55" stop-opacity="0"/>
<stop offset="1" stop-color="#66EDB5"/>
</linearGradient>
<linearGradient id="paint24_linear_4503_1745" x1="300.265" y1="192.259" x2="300.265" y2="116.979" gradientUnits="userSpaceOnUse">
<stop offset="0.0676845" stop-color="#00FF4D" stop-opacity="0"/>
<stop offset="1" stop-color="#78FFC2"/>
</linearGradient>
<linearGradient id="paint25_linear_4503_1745" x1="312.81" y1="191.682" x2="312.811" y2="101.924" gradientUnits="userSpaceOnUse">
<stop offset="0.0676845" stop-color="#00FF4D" stop-opacity="0"/>
<stop offset="1" stop-color="#7AFFD3"/>
</linearGradient>
<linearGradient id="paint26_linear_4503_1745" x1="325.352" y1="193.518" x2="325.352" y2="149.508" gradientUnits="userSpaceOnUse">
<stop offset="0.0676845" stop-color="#00FF4D" stop-opacity="0"/>
<stop offset="1" stop-color="#7AFFD3"/>
</linearGradient>
<linearGradient id="paint27_linear_4503_1745" x1="337.896" y1="191.174" x2="337.897" y2="88.6774" gradientUnits="userSpaceOnUse">
<stop offset="0.0676845" stop-color="#00FF55" stop-opacity="0"/>
<stop offset="1" stop-color="#66EDB5"/>
</linearGradient>
<linearGradient id="paint28_linear_4503_1745" x1="350.443" y1="192.585" x2="350.443" y2="125.412" gradientUnits="userSpaceOnUse">
<stop offset="0.0676845" stop-color="#00FF4D" stop-opacity="0"/>
<stop offset="1" stop-color="#78FFC2"/>
</linearGradient>
<linearGradient id="paint29_linear_4503_1745" x1="362.987" y1="192.258" x2="362.987" y2="116.978" gradientUnits="userSpaceOnUse">
<stop offset="0.0676845" stop-color="#00FF4D" stop-opacity="0"/>
<stop offset="1" stop-color="#7AFFD3"/>
</linearGradient>
<linearGradient id="paint30_linear_4503_1745" x1="82.6917" y1="83.1389" x2="258.293" y2="43.4544" gradientUnits="userSpaceOnUse">
<stop stop-color="#0D0D0D"/>
<stop offset="1" stop-color="#30FF9C"/>
</linearGradient>
<linearGradient id="paint31_linear_4503_1745" x1="185.188" y1="62" x2="185.188" y2="187" gradientUnits="userSpaceOnUse">
<stop stop-color="#030213" stop-opacity="0"/>
<stop offset="1" stop-color="#030213"/>
</linearGradient>
<clipPath id="clip0_4503_1745">
<rect width="370.002" height="186" fill="white"/>
</clipPath>
</defs>
</svg>
