<svg width="49" height="48" viewBox="0 0 49 48" fill="none" xmlns="http://www.w3.org/2000/svg">
<path d="M28.6666 8.50002C26.3072 8.50272 23.9796 9.04472 21.8617 10.0846C19.7437 11.1245 17.8916 12.6348 16.4466 14.5H6.66663C6.2688 14.5 5.88727 14.6581 5.60597 14.9394C5.32466 15.2207 5.16663 15.6022 5.16663 16C5.16663 16.3978 5.32466 16.7794 5.60597 17.0607C5.88727 17.342 6.2688 17.5 6.66663 17.5H14.6666C13.9255 19.0748 13.4653 20.7669 13.3066 22.5H8.66663C8.2688 22.5 7.88727 22.6581 7.60597 22.9394C7.32466 23.2207 7.16663 23.6022 7.16663 24C7.16663 24.3978 7.32466 24.7794 7.60597 25.0607C7.88727 25.342 8.2688 25.5 8.66663 25.5H13.2466C13.4242 27.2369 13.9048 28.9291 14.6666 30.5H10.6666C10.2688 30.5 9.88727 30.6581 9.60597 30.9394C9.32466 31.2207 9.16663 31.6022 9.16663 32C9.16663 32.3979 9.32466 32.7794 9.60597 33.0607C9.88727 33.342 10.2688 33.5 10.6666 33.5H16.4466C18.0602 35.5802 20.1769 37.2151 22.5973 38.2506C25.0177 39.2861 27.6619 39.6881 30.2807 39.4186C32.8994 39.1491 35.4064 38.2171 37.5652 36.7104C39.724 35.2036 41.4634 33.1719 42.6195 30.8068C43.7756 28.4416 44.3102 25.821 44.173 23.192C44.0357 20.5629 43.2311 18.0122 41.8351 15.7803C40.439 13.5484 38.4975 11.7088 36.1935 10.435C33.8896 9.16131 31.2992 8.49537 28.6666 8.50002ZM33.5066 26.5C33.3809 26.7472 33.1891 26.9547 32.9526 27.0995C32.716 27.2442 32.444 27.3206 32.1666 27.32C31.9326 27.3218 31.7009 27.2741 31.4866 27.18L27.9866 25.42C27.7409 25.2925 27.5346 25.1003 27.3901 24.8642C27.2456 24.628 27.1683 24.3569 27.1666 24.08V17C27.1666 16.6022 27.3247 16.2207 27.606 15.9394C27.8873 15.6581 28.2688 15.5 28.6666 15.5C29.0645 15.5 29.446 15.6581 29.7273 15.9394C30.0086 16.2207 30.1666 16.6022 30.1666 17V23L32.8466 24.32C33.0334 24.4085 33.1999 24.5347 33.3356 24.6905C33.4714 24.8464 33.5734 25.0287 33.6354 25.2258C33.6974 25.423 33.7179 25.6309 33.6958 25.8364C33.6736 26.0419 33.6092 26.2406 33.5066 26.42V26.5Z" fill="#30FF9C"/>
</svg>
